<?xml version="1.0" encoding="iso-8859-1"?>
<!-- Uploaded to: SVG Repo, www.svgrepo.com, Generator: SVG Repo Mixer Tools -->
<svg fill="#000000" height="800px" width="800px" version="1.1" id="Layer_1" xmlns="http://www.w3.org/2000/svg" xmlns:xlink="http://www.w3.org/1999/xlink" 
	 viewBox="0 0 512 512" xml:space="preserve">
<g>
	<g>
		<path d="M456.348,244.87h-16.696c0-8.501,0-184.605,0-194.783C439.652,22.469,417.183,0,389.565,0
			c-27.618,0-50.087,22.469-50.087,50.087v25.291c-10.635-3.771-21.817-6.377-33.391-7.662V50.087C306.087,22.469,283.618,0,256,0
			c-27.618,0-50.087,22.469-50.087,50.087v17.628c-11.575,1.286-22.756,3.891-33.391,7.662V50.087
			C172.522,22.469,150.053,0,122.435,0C94.817,0,72.348,22.469,72.348,50.087c0,10.179,0,186.28,0,194.783H55.652
			c-27.618,0-50.087,22.469-50.087,50.087v66.783c0,23.066,15.676,42.528,36.932,48.322c-2.276,5.718-3.541,11.942-3.541,18.461
			v33.391c0,27.618,22.469,50.087,50.087,50.087h333.913c27.618,0,50.087-22.469,50.087-50.087v-33.391
			c0-6.519-1.264-12.743-3.541-18.461c21.256-5.793,36.932-25.256,36.932-48.322v-66.783
			C506.435,267.339,483.966,244.87,456.348,244.87z M372.87,50.087c0-9.206,7.49-16.696,16.696-16.696
			c9.206,0,16.696,7.49,16.696,16.696v72.627c-9.523-11.776-20.783-22.092-33.391-30.549V50.087z M239.304,50.087
			c0-9.206,7.49-16.696,16.696-16.696c9.206,0,16.696,7.49,16.696,16.696v16.696h-33.391V50.087z M172.522,111.466
			c15.19-7.235,32.173-11.292,50.087-11.292h66.783c17.914,0,34.898,4.057,50.087,11.292v5.404
			c0,27.618-22.469,50.087-50.087,50.087h-16.696v-16.696c0-9.22-7.475-16.696-16.696-16.696c-9.22,0-16.696,7.475-16.696,16.696
			v16.696h-16.696c-27.618,0-50.087-22.469-50.087-50.087V111.466z M105.739,50.087c0-9.206,7.49-16.696,16.696-16.696
			c9.206,0,16.696,7.49,16.696,16.696v42.08c-12.609,8.457-23.868,18.773-33.391,30.549V50.087z M105.739,217.043
			c0-32.631,13.448-62.176,35.085-83.398c7.787,38.017,41.499,66.702,81.784,66.702h16.696c0,9.22,7.475,16.696,16.696,16.696
			c9.22,0,16.696-7.475,16.696-16.696h16.696c40.286,0,73.997-28.685,81.784-66.702c21.638,21.222,35.085,50.767,35.085,83.398
			c0,5.884,0,149.305,0,161.391H105.739C105.739,366.283,105.739,222.894,105.739,217.043z M38.957,294.957
			c0-9.206,7.49-16.696,16.696-16.696h16.696v33.391H38.957V294.957z M38.957,361.739v-16.696h33.391v33.391H55.652
			C46.446,378.435,38.957,370.945,38.957,361.739z M139.13,478.609H89.044c-9.206,0-16.696-7.49-16.696-16.696v-33.391
			c0-9.206,7.49-16.696,16.696-16.696h50.087V478.609z M339.478,478.609H172.522v-66.783h166.957V478.609z M439.652,461.913
			c0,9.206-7.49,16.696-16.696,16.696H372.87v-66.783h50.087c9.206,0,16.696,7.49,16.696,16.696V461.913z M473.043,361.739
			c0,9.206-7.49,16.696-16.696,16.696h-16.696v-33.391h33.391V361.739z M473.043,311.652h-33.391v-33.391h16.696
			c9.206,0,16.696,7.49,16.696,16.696V311.652z"/>
	</g>
</g>
<g>
	<g>
		<path d="M356.174,244.87H155.826c-9.22,0-16.696,7.475-16.696,16.696v66.783c0,9.22,7.475,16.696,16.696,16.696h200.348
			c9.22,0,16.696-7.475,16.696-16.696v-66.783C372.87,252.345,365.394,244.87,356.174,244.87z M339.478,311.652H172.522v-33.391
			h166.957V311.652z"/>
	</g>
</g>
</svg>