<?xml version="1.0" encoding="utf-8"?>
<!-- Uploaded to: SVG Repo, www.svgrepo.com, Generator: SVG Repo Mixer Tools -->
<!DOCTYPE svg PUBLIC "-//W3C//DTD SVG 1.1//EN" "http://www.w3.org/Graphics/SVG/1.1/DTD/svg11.dtd">
<svg fill="#000000" width="800px" height="800px" viewBox="0 0 1000 1000" version="1.1" xmlns="http://www.w3.org/2000/svg" xmlns:xlink="http://www.w3.org/1999/xlink"  enable-background="new 0 0 1000 1000" xml:space="preserve">

<g>
<g transform="translate(0.000000,512.000000) scale(0.100000,-0.100000)">
<path d="M4864.5,5011.1c-42.2-3.8-161.1-24.9-266.6-46c-889.9-186-1668.6-818.9-1777.9-1448c-51.8-295.4,24.9-684.7,178.4-903.3c40.3-57.5,72.9-107.4,69-111.2c-3.8-1.9-113.2-40.3-245.5-84.4c-272.3-90.1-360.6-149.6-515.9-343.3C1774.8,1413.1,1352.8-90.5,858-3078.6C685.4-4118.1,649-4390.5,675.8-4451.8c11.5-32.6,36.4-65.2,53.7-72.9c17.3-9.6,266.6-74.8,556.2-143.8c468-113.1,529.3-124.7,565.8-101.7c80.6,53.7,333.7,562,579.2,1164.2c140,343.3,138.1,347.1,94-193.7c-26.9-312.6-26.9-358.7,0-448.8c32.6-117,126.6-212.9,224.4-230.1c34.5-5.8,1108.5-7.7,2384-5.8l2320.7,5.8l59.5,42.2c32.6,23,71,71,86.3,103.6c24.9,63.3,24.9,61.4-32.6,755.7l-9.6,115.1l94-249.3c124.7-328,174.6-446.9,326.1-763.3c99.7-211,134.3-266.6,172.6-276.2c26.9-5.8,251.3,38.3,556.2,111.2c642.5,153.4,629.1,143.8,625.2,404.7c-7.7,483.3-337.6,2437.7-644.4,3803.2c-312.6,1398.2-726.9,2453-1091.3,2782.9c-42.2,38.4-335.6,159.2-462.2,189.9c-63.3,17.3-67.1,34.5-15.4,105.5c178.4,251.2,237.8,692.4,134.3,993.5C7097,4088.6,6510.1,4606.5,5881,4850C5510.9,4993.9,5207.8,5041.8,4864.5,5011.1z M5384.3,4687c180.3-36.4,437.3-126.6,604.1-209c460.3-232.1,882.2-640.6,987.7-953.2c47.9-145.8,30.7-414.3-38.4-561.9c-92.1-201.4-209-316.5-320.3-316.5c-80.5,0-398.9-86.3-562-151.5c-281.9-113.2-586.9-314.5-842-558.1l-140-132.3l-105.5,105.5c-264.7,270.4-705.8,489.1-1338.7,659.8c-243.6,65.2-301.1,99.7-387.4,222.5c-97.8,143.8-136.2,280-136.2,496.7c-1.9,301.1,88.2,494.8,347.1,751.8C3942,4525.9,4793.6,4809.8,5384.3,4687z M7016.4,2249.4c176.5-63.3,199.5-76.7,191.8-111.2c-5.8-21.1-36.4-120.8-67.1-220.6c-95.9-308.8-120.8-502.5-132.3-1006.9l-11.5-460.3l-71-105.5c-258.9-381.7-435.4-1001.2-521.7-1822c-17.2-170.7-24.9-600.3-24.9-1492.1v-1250.5H5029.5H3679.3l13.4,92.1c5.8,49.9,17.3,431.5,23,847.7c13.4,807.5-9.6,1588-59.5,2021.5c-78.6,661.7-239.7,1206.4-460.3,1547.8l-86.3,134.2v333.7c0,500.6-65.2,907.2-199.5,1237.1l-47.9,117l61.4,26.8c34.5,13.4,130.4,55.6,216.7,92.1l155.4,67.1l82.5-113.2c111.2-151.5,318.4-345.2,491-458.4c702-458.4,1785.6-420,2443.4,86.3c122.8,94,385.5,366.3,435.4,452.6c19.2,30.7,40.3,55.6,49.9,55.6S6905.2,2287.7,7016.4,2249.4z M6293.4,2165c-211-193.7-521.7-364.4-748-410.4l-67.1-13.4l55.6,59.5c71,74.8,295.4,230.2,433.5,299.2c109.3,55.6,379.7,161.1,412.3,161.1C6391.2,2260.9,6350.9,2216.8,6293.4,2165z M3919,2174.6c203.3-72.9,523.6-243.6,663.6-354.8c67.1-53.7,118.9-101.6,113.2-105.5c-15.4-15.3-278.1,51.8-400.9,101.7c-145.8,59.4-299.2,155.3-441.1,278.1C3686.9,2237.9,3700.4,2253.2,3919,2174.6z M7635.9,1802.5c324.1-567.7,608-1503.6,928.3-3059.1c184.1-905.3,454.5-2501,494.8-2922.9l5.8-67.1l-345.2-101.6c-189.9-55.6-358.7-101.6-374-101.6c-32.6,0-40.3,19.2-243.6,508.2c-280,677-588.8,1710.8-638.7,2138.5c-46,397-128.5,1754.9-145.7,2385.9c-15.4,585,15.3,903.3,130.4,1292.7C7495.9,2042.2,7499.8,2040.3,7635.9,1802.5z M2655.1,1900.3c46-111.2,103.6-354.8,130.4-537c34.5-239.7,11.5-953.2-67.1-2178.7c-71-1106.7-76.7-1148.8-207.1-1630.2c-86.3-322.2-237.8-772.9-370.2-1102.8c-176.5-439.2-395.1-901.4-425.8-901.4c-13.4,0-184.1,40.3-375.9,88.2c-351,88.2-351,88.2-345.2,138.1c55.6,469.9,235.9,1588,370.2,2295.7c395.1,2079,738.4,3214.4,1143.1,3782.1c47.9,65.2,94,120.8,101.6,120.8C2618.7,1975.1,2639.8,1940.6,2655.1,1900.3z M7012.6-585.3c15.3-232.1,36.4-646.3,47.9-920.6c32.6-891.8,61.4-1217.9,182.2-2117.4c36.4-268.5,67.1-504.4,67.1-523.6c0-32.6-23-34.5-305-34.5h-303l-13.4,101.7c-26.8,214.8-34.5,1386.6-13.4,1935.2c28.8,776.8,92.1,1346.4,195.6,1749.1c44.1,176.4,95.9,303,105.5,260.8C6980-150,6995.3-353.2,7012.6-585.3z M3167.2-364.8c117-368.2,199.5-895.7,230.2-1457.6c21.1-374,23-1914.1,3.8-2167.2l-13.4-163l-257-5.7c-141.9-1.9-268.5-1.9-280,1.9c-13.4,5.8-15.3,97.8-5.8,293.5c26.8,521.7,130.4,2251.6,178.4,2976.6c26.9,393.2,47.9,725,47.9,738.4C3071.3-100.1,3111.6-188.3,3167.2-364.8z"/>
</g>
</g>
</svg>