<?xml version="1.0" encoding="iso-8859-1"?>
<!-- Uploaded to: SVG Repo, www.svgrepo.com, Generator: SVG Repo Mixer Tools -->
<svg fill="#000000" height="800px" width="800px" version="1.1" id="Layer_1" xmlns="http://www.w3.org/2000/svg" xmlns:xlink="http://www.w3.org/1999/xlink" 
	 viewBox="0 0 511.997 511.997" xml:space="preserve">
<g transform="translate(1 1)">
	<g>
		<g>
			<path d="M383,7.533C383,2.82,379.179-1,374.466-1H135.533C130.82-1,127,2.82,127,7.533v34.133c0,0.059,0.008,0.115,0.009,0.174
				c0.002,0.1-0.005,0.199,0.001,0.3l3.243,58.317c0,0.004,0.001,0.008,0.001,0.012l22.359,402.468
				c0.251,4.522,3.991,8.06,8.52,8.06h59.733c4.529,0,8.269-3.538,8.52-8.06l17.067-307.208c0.141-5.272,3.831-8.998,8.546-8.998
				c4.87,0,8.857,3.883,8.989,8.755l16.624,307.439c0.245,4.527,3.987,8.072,8.521,8.072h59.733c4.529,0,8.269-3.538,8.52-8.06
				l23.499-422.974l2.103-37.823c0.005-0.089-0.001-0.175,0.001-0.264c0.002-0.07,0.011-0.139,0.011-0.21V7.533z M363.343,88.031
				c-13.813-7.167-23.009-21.568-23.009-37.831h25.111l-1.585,28.531L363.343,88.031z M144.554,50.2h25.109
				c0,16.267-9.193,30.667-23.007,37.832L144.554,50.2z M365.933,16.067v17.064H255H144.066V16.067H365.933z M229.402,195.033
				l-16.609,298.898h-43.589l-21.541-387.733c23.096-8.5,39.065-30.619,39.065-55.997h59.737v120.913
				C236.643,174.581,229.693,183.907,229.402,195.033z M340.794,493.931h-43.577l-16.178-299.136
				c-0.293-10.945-7.535-20.254-17.506-23.702V50.2h59.735c0,25.375,15.973,47.496,39.067,55.997L340.794,493.931z"/>
			<path d="M203.8,306.197h-25.6c-4.713,0-8.533,3.82-8.533,8.533s3.82,8.533,8.533,8.533h25.6c4.713,0,8.533-3.82,8.533-8.533
				S208.512,306.197,203.8,306.197z"/>
			<path d="M331.8,306.197h-25.6c-4.713,0-8.533,3.82-8.533,8.533s3.82,8.533,8.533,8.533h25.6c4.713,0,8.533-3.82,8.533-8.533
				S336.512,306.197,331.8,306.197z"/>
			<path d="M340.333,169.664H306.2c-4.713,0-8.533,3.82-8.533,8.533s3.82,8.533,8.533,8.533h34.133c4.713,0,8.533-3.82,8.533-8.533
				S345.046,169.664,340.333,169.664z"/>
			<path d="M203.8,169.664h-34.133c-4.713,0-8.533,3.82-8.533,8.533s3.82,8.533,8.533,8.533H203.8c4.713,0,8.533-3.82,8.533-8.533
				S208.512,169.664,203.8,169.664z"/>
		</g>
	</g>
</g>
</svg>